<svg width="24" height="24" viewBox="0 0 24 24" fill="none" xmlns="http://www.w3.org/2000/svg">
<g clip-path="url(#clip0_9_143)">
<path d="M12 24C18.6274 24 24 18.6274 24 12C24 5.37258 18.6274 0 12 0C5.37258 0 0 5.37258 0 12C0 18.6274 5.37258 24 12 24Z" fill="#2AABEE"/>
<path fill-rule="evenodd" clip-rule="evenodd" d="M5.43189 11.8733C8.93014 10.3492 11.2628 9.34438 12.43 8.85891C15.7626 7.4728 16.455 7.23202 16.9064 7.22407C17.0056 7.22232 17.2276 7.24692 17.3714 7.36358C17.4928 7.46209 17.5262 7.59516 17.5422 7.68856C17.5581 7.78196 17.578 7.99472 17.5622 8.16096C17.3816 10.0584 16.6002 14.6631 16.2027 16.7883C16.0345 17.6876 15.7032 17.9891 15.3826 18.0186C14.6857 18.0828 14.1566 17.5581 13.4816 17.1157C12.4255 16.4233 11.8288 15.9924 10.8036 15.3168C9.61884 14.536 10.3869 14.1069 11.0621 13.4056C11.2388 13.2221 14.3092 10.4293 14.3686 10.176C14.376 10.1443 14.3829 10.0262 14.3128 9.96383C14.2426 9.90147 14.139 9.92279 14.0643 9.93976C13.9584 9.9638 12.2712 11.079 9.00264 13.2853C8.52373 13.6142 8.08994 13.7744 7.70129 13.766C7.27283 13.7568 6.44864 13.5238 5.83594 13.3246C5.08444 13.0803 4.48716 12.9512 4.53917 12.5363C4.56626 12.3202 4.86383 12.0992 5.43189 11.8733Z" fill="white"/>
</g>
<defs>
<clipPath id="clip0_9_143">
<rect width="24" height="24" fill="white"/>
</clipPath>
</defs>
</svg>
