<svg width="24" height="24" viewBox="0 0 24 24" fill="none" xmlns="http://www.w3.org/2000/svg">
<path d="M24 11.9997C24 18.6276 18.6276 24 12.0002 24C5.37252 24 0 18.6276 0 11.9997C0 5.37244 5.37252 0 12.0002 0C18.6276 0 24 5.37244 24 11.9997Z" fill="#3CBA64"/>
<path d="M9.4551 16.3862C9.55177 16.4334 9.69172 16.5273 9.69172 16.5273C10.5592 17.0444 11.5462 17.3176 12.545 17.3176C15.6277 17.3176 18.135 14.8096 18.135 11.728C18.135 8.64563 15.6277 6.13762 12.545 6.13762C9.46315 6.13762 6.95543 8.64563 6.95543 11.728C6.95543 12.746 7.23784 13.7478 7.77295 14.6262C7.77295 14.6262 7.86943 14.7667 7.91789 14.8641C8.18712 15.4051 6.95543 16.5273 7.35939 16.9483C7.71381 17.3176 8.91961 16.1248 9.4551 16.3862ZM5.51663 18.7907C5.17454 18.2671 6.51684 15.0574 6.51684 15.0574C5.95071 14.0353 5.65254 12.8902 5.65254 11.728C5.65254 7.92751 8.74469 4.83541 12.545 4.83541C16.3458 4.83541 19.4383 7.92751 19.4383 11.728C19.4383 15.5287 16.3458 18.6208 12.545 18.6208C11.4042 18.6208 10.2775 18.3319 9.26888 17.7853C9.26888 17.7853 5.85871 19.3143 5.51663 18.7907Z" fill="white"/>
<path fill-rule="evenodd" clip-rule="evenodd" d="M15.109 12.6867C14.8258 12.5168 14.4565 12.3276 14.1224 12.4639C13.8656 12.5687 13.7022 12.9704 13.5356 13.1756C13.4503 13.2804 13.3485 13.2965 13.218 13.2445C12.2553 12.8604 11.5175 12.2177 10.9869 11.3328C10.8968 11.195 10.9132 11.087 11.0209 10.9593C11.1818 10.7702 11.3829 10.5554 11.4272 10.3015C11.4699 10.0466 11.3509 9.74912 11.245 9.52244C11.1112 9.23232 10.9609 8.81943 10.6708 8.65528C10.4038 8.5046 10.0523 8.58955 9.81481 8.78258C9.40478 9.11693 9.20666 9.64013 9.2124 10.1588C9.21437 10.3063 9.23226 10.4538 9.2669 10.5954C9.34963 10.9378 9.5077 11.2575 9.68563 11.5614C9.8199 11.7906 9.96583 12.0125 10.1232 12.2266C10.6377 12.9255 11.2786 13.533 12.0198 13.9873C12.3907 14.2143 12.7896 14.4137 13.2032 14.5499C13.6669 14.7032 14.0798 14.8626 14.5796 14.7673C15.104 14.668 15.6203 14.3441 15.8287 13.8392C15.8903 13.6892 15.9215 13.5224 15.887 13.3648C15.8156 13.0384 15.3732 12.8444 15.109 12.6867Z" fill="white"/>
</svg>
