<svg width="95" height="56" viewBox="0 0 95 56" fill="none" xmlns="http://www.w3.org/2000/svg">
<path d="M0.294224 53.5683C0.215764 53.5683 0 53.5683 0 53.5683C0 53.5683 0 53.3526 0 53.2741V45.6243C0 45.538 0 45.3301 0 45.3301C0 45.3301 0.215764 45.3301 0.294224 45.3301H1.56527C1.75357 45.3301 1.89088 45.4164 1.97718 45.589L4.04852 49.2962L6.11985 45.589C6.20616 45.4164 6.34346 45.3301 6.53176 45.3301H7.79104C7.87735 45.3301 8.09703 45.3301 8.09703 45.3301C8.09703 45.3301 8.09703 45.538 8.09703 45.6243V53.2741C8.09703 53.3604 8.09703 53.5683 8.09703 53.5683C8.09703 53.5683 7.87735 53.5683 7.79104 53.5683H6.39054C6.30423 53.5683 6.08454 53.5683 6.08454 53.5683C6.08454 53.5683 6.08454 53.3604 6.08454 53.2741V48.8608L4.76642 51.3205C4.66442 51.5009 4.61328 51.5912 4.61328 51.5912H3.74252C3.64053 51.5912 3.48828 51.5912 3.48828 51.5912C3.48828 51.5912 3.37769 51.4068 3.33061 51.3205L2.00072 48.8608V53.2741C2.00072 53.3526 2.00072 53.5683 2.00072 53.5683C2.00072 53.5683 1.7928 53.5683 1.7065 53.5683H0.294224Z" fill="black"/>
<path d="M0.294224 53.5683C0.215764 53.5683 0 53.5683 0 53.5683C0 53.5683 0 53.3526 0 53.2741V45.6243C0 45.538 0 45.3301 0 45.3301C0 45.3301 0.215764 45.3301 0.294224 45.3301H1.56527C1.75357 45.3301 1.89088 45.4164 1.97718 45.589L4.04852 49.2962L6.11985 45.589C6.20616 45.4164 6.34346 45.3301 6.53176 45.3301H7.79104C7.87735 45.3301 8.09703 45.3301 8.09703 45.3301C8.09703 45.3301 8.09703 45.538 8.09703 45.6243V53.2741C8.09703 53.3604 8.09703 53.5683 8.09703 53.5683C8.09703 53.5683 7.87735 53.5683 7.79104 53.5683H6.39054C6.30423 53.5683 6.08454 53.5683 6.08454 53.5683C6.08454 53.5683 6.08454 53.3604 6.08454 53.2741V48.8608L4.76642 51.3205C4.66442 51.5009 4.61328 51.5912 4.61328 51.5912H3.74252C3.64053 51.5912 3.48828 51.5912 3.48828 51.5912C3.48828 51.5912 3.37769 51.4068 3.33061 51.3205L2.00072 48.8608V53.2741C2.00072 53.3526 2.00072 53.5683 2.00072 53.5683C2.00072 53.5683 1.7928 53.5683 1.7065 53.5683H0.294224Z" fill="url(#paint0_linear_113_2225)"/>
<path d="M15.9131 47.4485C15.9915 47.4485 16.1955 47.4485 16.1955 47.4485C16.1955 47.4485 16.1955 47.6525 16.1955 47.7309V53.2741C16.1955 53.3526 16.1955 53.5683 16.1955 53.5683C16.1955 53.5683 15.9876 53.5683 15.9013 53.5683H14.5126C14.4341 53.5683 14.2184 53.5683 14.2184 53.5683C14.2184 53.5683 14.2184 53.3526 14.2184 53.2741V49.9788L11.8293 53.38C11.743 53.5056 11.6331 53.5683 11.4997 53.5683H10.2522C10.1738 53.5683 9.96976 53.5683 9.96976 53.5683C9.96976 53.5683 9.96976 53.3643 9.96976 53.2859V47.7427C9.96976 47.6564 9.96976 47.4485 9.96976 47.4485C9.96976 47.4485 10.1777 47.4485 10.264 47.4485H11.6527C11.739 47.4485 11.9469 47.4485 11.9469 47.4485C11.9469 47.4485 11.9469 47.6564 11.9469 47.7427V51.0262L14.3243 47.6368C14.4106 47.5113 14.5204 47.4485 14.6538 47.4485H15.9131Z" fill="black"/>
<path d="M15.9131 47.4485C15.9915 47.4485 16.1955 47.4485 16.1955 47.4485C16.1955 47.4485 16.1955 47.6525 16.1955 47.7309V53.2741C16.1955 53.3526 16.1955 53.5683 16.1955 53.5683C16.1955 53.5683 15.9876 53.5683 15.9013 53.5683H14.5126C14.4341 53.5683 14.2184 53.5683 14.2184 53.5683C14.2184 53.5683 14.2184 53.3526 14.2184 53.2741V49.9788L11.8293 53.38C11.743 53.5056 11.6331 53.5683 11.4997 53.5683H10.2522C10.1738 53.5683 9.96976 53.5683 9.96976 53.5683C9.96976 53.5683 9.96976 53.3643 9.96976 53.2859V47.7427C9.96976 47.6564 9.96976 47.4485 9.96976 47.4485C9.96976 47.4485 10.1777 47.4485 10.264 47.4485H11.6527C11.739 47.4485 11.9469 47.4485 11.9469 47.4485C11.9469 47.4485 11.9469 47.6564 11.9469 47.7427V51.0262L14.3243 47.6368C14.4106 47.5113 14.5204 47.4485 14.6538 47.4485H15.9131Z" fill="url(#paint1_linear_113_2225)"/>
<path d="M18.1221 55.8044C18.0436 55.8044 17.8278 55.8044 17.8278 55.8044C17.8278 55.8044 17.8278 55.5965 17.8278 55.5102V47.7427C17.8278 47.6564 17.8278 47.4485 17.8278 47.4485C17.8278 47.4485 18.0436 47.4485 18.1221 47.4485H19.4519C19.5382 47.4485 19.7462 47.4485 19.7462 47.4485C19.7462 47.4485 19.7462 47.6564 19.7462 47.7427V48.1664C20.1698 47.6093 20.7779 47.3308 21.5704 47.3308C22.3393 47.3308 22.9395 47.5701 23.371 48.0487C23.8025 48.5273 24.0379 49.2021 24.0771 50.073C24.085 50.175 24.0889 50.3201 24.0889 50.5084C24.0889 50.6967 24.085 50.8419 24.0771 50.9439C24.0458 51.7912 23.8104 52.4621 23.371 52.9564C22.9316 53.4428 22.3314 53.686 21.5704 53.686C20.8015 53.686 20.2287 53.4232 19.8521 52.8975V55.5102C19.8521 55.5965 19.8521 55.8044 19.8521 55.8044C19.8521 55.8044 19.6442 55.8044 19.5579 55.8044H18.1221ZM20.9348 52.109C21.3036 52.109 21.5664 51.9991 21.7234 51.7795C21.8881 51.5598 21.9823 51.2577 22.0058 50.8733C22.0215 50.7163 22.0293 50.5947 22.0293 50.5084C22.0293 50.4221 22.0215 50.3005 22.0058 50.1436C21.9823 49.7591 21.8881 49.4571 21.7234 49.2374C21.5664 49.0177 21.3036 48.9078 20.9348 48.9078C20.5739 48.9078 20.3072 49.0216 20.1345 49.2491C19.9698 49.4688 19.8756 49.7552 19.8521 50.1083L19.8403 50.5437L19.8521 50.9909C19.8678 51.3126 19.9659 51.5794 20.1463 51.7912C20.3268 52.0031 20.5896 52.109 20.9348 52.109Z" fill="black"/>
<path d="M18.1221 55.8044C18.0436 55.8044 17.8278 55.8044 17.8278 55.8044C17.8278 55.8044 17.8278 55.5965 17.8278 55.5102V47.7427C17.8278 47.6564 17.8278 47.4485 17.8278 47.4485C17.8278 47.4485 18.0436 47.4485 18.1221 47.4485H19.4519C19.5382 47.4485 19.7462 47.4485 19.7462 47.4485C19.7462 47.4485 19.7462 47.6564 19.7462 47.7427V48.1664C20.1698 47.6093 20.7779 47.3308 21.5704 47.3308C22.3393 47.3308 22.9395 47.5701 23.371 48.0487C23.8025 48.5273 24.0379 49.2021 24.0771 50.073C24.085 50.175 24.0889 50.3201 24.0889 50.5084C24.0889 50.6967 24.085 50.8419 24.0771 50.9439C24.0458 51.7912 23.8104 52.4621 23.371 52.9564C22.9316 53.4428 22.3314 53.686 21.5704 53.686C20.8015 53.686 20.2287 53.4232 19.8521 52.8975V55.5102C19.8521 55.5965 19.8521 55.8044 19.8521 55.8044C19.8521 55.8044 19.6442 55.8044 19.5579 55.8044H18.1221ZM20.9348 52.109C21.3036 52.109 21.5664 51.9991 21.7234 51.7795C21.8881 51.5598 21.9823 51.2577 22.0058 50.8733C22.0215 50.7163 22.0293 50.5947 22.0293 50.5084C22.0293 50.4221 22.0215 50.3005 22.0058 50.1436C21.9823 49.7591 21.8881 49.4571 21.7234 49.2374C21.5664 49.0177 21.3036 48.9078 20.9348 48.9078C20.5739 48.9078 20.3072 49.0216 20.1345 49.2491C19.9698 49.4688 19.8756 49.7552 19.8521 50.1083L19.8403 50.5437L19.8521 50.9909C19.8678 51.3126 19.9659 51.5794 20.1463 51.7912C20.3268 52.0031 20.5896 52.109 20.9348 52.109Z" fill="url(#paint2_linear_113_2225)"/>
<path d="M34.6309 53.18C34.6623 53.2113 34.678 53.2623 34.678 53.333C34.678 53.3957 34.6545 53.4506 34.6074 53.4977C34.5603 53.5448 34.4976 53.5683 34.4191 53.5683H32.7597C32.6185 53.5683 32.5047 53.5056 32.4184 53.38L31.0414 51.2381H30.4177V53.2741C30.4177 53.3604 30.4177 53.5683 30.4177 53.5683C30.4177 53.5683 30.198 53.5683 30.1117 53.5683H28.7582C28.6719 53.5683 28.464 53.5683 28.464 53.5683C28.464 53.5683 28.464 53.3604 28.464 53.2741V47.7427C28.464 47.6564 28.464 47.4485 28.464 47.4485C28.464 47.4485 28.6719 47.4485 28.7582 47.4485H30.1117C30.198 47.4485 30.4177 47.4485 30.4177 47.4485C30.4177 47.4485 30.4177 47.6564 30.4177 47.7427V49.6964H31.0649L32.3242 47.6368C32.4105 47.5113 32.5204 47.4485 32.6538 47.4485H34.1602C34.2308 47.4485 34.3367 47.5191 34.3367 47.5191C34.3367 47.5191 34.4191 47.6211 34.4191 47.6839C34.4191 47.7388 34.3995 47.7937 34.3603 47.8486L32.7597 50.4143L34.6309 53.18Z" fill="black"/>
<path d="M34.6309 53.18C34.6623 53.2113 34.678 53.2623 34.678 53.333C34.678 53.3957 34.6545 53.4506 34.6074 53.4977C34.5603 53.5448 34.4976 53.5683 34.4191 53.5683H32.7597C32.6185 53.5683 32.5047 53.5056 32.4184 53.38L31.0414 51.2381H30.4177V53.2741C30.4177 53.3604 30.4177 53.5683 30.4177 53.5683C30.4177 53.5683 30.198 53.5683 30.1117 53.5683H28.7582C28.6719 53.5683 28.464 53.5683 28.464 53.5683C28.464 53.5683 28.464 53.3604 28.464 53.2741V47.7427C28.464 47.6564 28.464 47.4485 28.464 47.4485C28.464 47.4485 28.6719 47.4485 28.7582 47.4485H30.1117C30.198 47.4485 30.4177 47.4485 30.4177 47.4485C30.4177 47.4485 30.4177 47.6564 30.4177 47.7427V49.6964H31.0649L32.3242 47.6368C32.4105 47.5113 32.5204 47.4485 32.6538 47.4485H34.1602C34.2308 47.4485 34.3367 47.5191 34.3367 47.5191C34.3367 47.5191 34.4191 47.6211 34.4191 47.6839C34.4191 47.7388 34.3995 47.7937 34.3603 47.8486L32.7597 50.4143L34.6309 53.18Z" fill="url(#paint3_linear_113_2225)"/>
<path d="M38.5851 53.686C37.6122 53.686 36.8629 53.4546 36.3372 52.9917C35.8116 52.5287 35.5252 51.8775 35.4781 51.038C35.4703 50.936 35.4663 50.7595 35.4663 50.5084C35.4663 50.2573 35.4703 50.0808 35.4781 49.9788C35.5252 49.1471 35.8194 48.4998 36.3608 48.0369C36.9022 47.5662 37.6436 47.3308 38.5851 47.3308C39.5345 47.3308 40.2799 47.5662 40.8212 48.0369C41.3626 48.4998 41.6568 49.1471 41.7039 49.9788C41.7117 50.0808 41.7157 50.2573 41.7157 50.5084C41.7157 50.7595 41.7117 50.936 41.7039 51.038C41.6568 51.8775 41.3704 52.5287 40.8448 52.9917C40.3191 53.4546 39.5659 53.686 38.5851 53.686ZM38.5851 52.2502C38.9303 52.2502 39.1853 52.1482 39.3501 51.9442C39.5149 51.7324 39.609 51.4107 39.6326 50.9792C39.6404 50.9007 39.6443 50.7438 39.6443 50.5084C39.6443 50.273 39.6404 50.1161 39.6326 50.0377C39.609 49.614 39.5109 49.2962 39.3383 49.0844C39.1736 48.8725 38.9225 48.7666 38.5851 48.7666C37.9339 48.7666 37.5887 49.1903 37.5494 50.0377L37.5377 50.5084L37.5494 50.9792C37.5651 51.4107 37.6554 51.7324 37.8201 51.9442C37.9927 52.1482 38.2477 52.2502 38.5851 52.2502Z" fill="black"/>
<path d="M38.5851 53.686C37.6122 53.686 36.8629 53.4546 36.3372 52.9917C35.8116 52.5287 35.5252 51.8775 35.4781 51.038C35.4703 50.936 35.4663 50.7595 35.4663 50.5084C35.4663 50.2573 35.4703 50.0808 35.4781 49.9788C35.5252 49.1471 35.8194 48.4998 36.3608 48.0369C36.9022 47.5662 37.6436 47.3308 38.5851 47.3308C39.5345 47.3308 40.2799 47.5662 40.8212 48.0369C41.3626 48.4998 41.6568 49.1471 41.7039 49.9788C41.7117 50.0808 41.7157 50.2573 41.7157 50.5084C41.7157 50.7595 41.7117 50.936 41.7039 51.038C41.6568 51.8775 41.3704 52.5287 40.8448 52.9917C40.3191 53.4546 39.5659 53.686 38.5851 53.686ZM38.5851 52.2502C38.9303 52.2502 39.1853 52.1482 39.3501 51.9442C39.5149 51.7324 39.609 51.4107 39.6326 50.9792C39.6404 50.9007 39.6443 50.7438 39.6443 50.5084C39.6443 50.273 39.6404 50.1161 39.6326 50.0377C39.609 49.614 39.5109 49.2962 39.3383 49.0844C39.1736 48.8725 38.9225 48.7666 38.5851 48.7666C37.9339 48.7666 37.5887 49.1903 37.5494 50.0377L37.5377 50.5084L37.5494 50.9792C37.5651 51.4107 37.6554 51.7324 37.8201 51.9442C37.9927 52.1482 38.2477 52.2502 38.5851 52.2502Z" fill="url(#paint4_linear_113_2225)"/>
<path d="M43.5319 53.5683C43.4456 53.5683 43.2377 53.5683 43.2377 53.5683C43.2377 53.5683 43.2377 53.3604 43.2377 53.2741V47.7427C43.2377 47.6564 43.2377 47.4485 43.2377 47.4485C43.2377 47.4485 43.4456 47.4485 43.5319 47.4485H46.2859C47.1882 47.4485 47.859 47.6015 48.2984 47.9075C48.7456 48.2135 48.9692 48.6411 48.9692 49.1903C48.9692 49.4727 48.9143 49.712 48.8044 49.9082C48.6946 50.0965 48.5337 50.2573 48.3219 50.3907C48.5808 50.5241 48.7848 50.7085 48.9339 50.9439C49.083 51.1792 49.1575 51.4499 49.1575 51.7559C49.1575 52.3365 48.9339 52.7837 48.4867 53.0976C48.0394 53.4114 47.3647 53.5683 46.4624 53.5683H43.5319ZM46.3212 49.8376C46.5722 49.8376 46.7684 49.7905 46.9096 49.6964C47.0508 49.5944 47.1215 49.4453 47.1215 49.2491C47.1215 48.8882 46.8547 48.7078 46.3212 48.7078H45.1443V49.8376H46.3212ZM46.3447 52.3091C46.8861 52.3091 47.1568 52.1168 47.1568 51.7324C47.1568 51.5284 47.0901 51.3832 46.9567 51.2969C46.8233 51.2028 46.6193 51.1557 46.3447 51.1557H45.1443V52.3091H46.3447Z" fill="black"/>
<path d="M43.5319 53.5683C43.4456 53.5683 43.2377 53.5683 43.2377 53.5683C43.2377 53.5683 43.2377 53.3604 43.2377 53.2741V47.7427C43.2377 47.6564 43.2377 47.4485 43.2377 47.4485C43.2377 47.4485 43.4456 47.4485 43.5319 47.4485H46.2859C47.1882 47.4485 47.859 47.6015 48.2984 47.9075C48.7456 48.2135 48.9692 48.6411 48.9692 49.1903C48.9692 49.4727 48.9143 49.712 48.8044 49.9082C48.6946 50.0965 48.5337 50.2573 48.3219 50.3907C48.5808 50.5241 48.7848 50.7085 48.9339 50.9439C49.083 51.1792 49.1575 51.4499 49.1575 51.7559C49.1575 52.3365 48.9339 52.7837 48.4867 53.0976C48.0394 53.4114 47.3647 53.5683 46.4624 53.5683H43.5319ZM46.3212 49.8376C46.5722 49.8376 46.7684 49.7905 46.9096 49.6964C47.0508 49.5944 47.1215 49.4453 47.1215 49.2491C47.1215 48.8882 46.8547 48.7078 46.3212 48.7078H45.1443V49.8376H46.3212ZM46.3447 52.3091C46.8861 52.3091 47.1568 52.1168 47.1568 51.7324C47.1568 51.5284 47.0901 51.3832 46.9567 51.2969C46.8233 51.2028 46.6193 51.1557 46.3447 51.1557H45.1443V52.3091H46.3447Z" fill="url(#paint5_linear_113_2225)"/>
<path d="M51.0222 55.8044C50.9438 55.8044 50.728 55.8044 50.728 55.8044C50.728 55.8044 50.728 55.5965 50.728 55.5102V47.7427C50.728 47.6564 50.728 47.4485 50.728 47.4485C50.728 47.4485 50.9438 47.4485 51.0222 47.4485H52.3521C52.4384 47.4485 52.6463 47.4485 52.6463 47.4485C52.6463 47.4485 52.6463 47.6564 52.6463 47.7427V48.1664C53.07 47.6093 53.6781 47.3308 54.4705 47.3308C55.2394 47.3308 55.8396 47.5701 56.2712 48.0487C56.7027 48.5273 56.9381 49.2021 56.9773 50.073C56.9852 50.175 56.9891 50.3201 56.9891 50.5084C56.9891 50.6967 56.9852 50.8419 56.9773 50.9439C56.9459 51.7912 56.7105 52.4621 56.2712 52.9564C55.8318 53.4428 55.2316 53.686 54.4705 53.686C53.7016 53.686 53.1289 53.4232 52.7523 52.8975V55.5102C52.7523 55.5965 52.7523 55.8044 52.7523 55.8044C52.7523 55.8044 52.5443 55.8044 52.458 55.8044H51.0222ZM53.835 52.109C54.2038 52.109 54.4666 51.9991 54.6235 51.7795C54.7883 51.5598 54.8824 51.2577 54.906 50.8733C54.9217 50.7163 54.9295 50.5947 54.9295 50.5084C54.9295 50.4221 54.9217 50.3005 54.906 50.1436C54.8824 49.7591 54.7883 49.4571 54.6235 49.2374C54.4666 49.0177 54.2038 48.9078 53.835 48.9078C53.4741 48.9078 53.2073 49.0216 53.0347 49.2491C52.8699 49.4688 52.7758 49.7552 52.7523 50.1083L52.7405 50.5437L52.7523 50.9909C52.768 51.3126 52.866 51.5794 53.0465 51.7912C53.2269 52.0031 53.4898 52.109 53.835 52.109Z" fill="black"/>
<path d="M51.0222 55.8044C50.9438 55.8044 50.728 55.8044 50.728 55.8044C50.728 55.8044 50.728 55.5965 50.728 55.5102V47.7427C50.728 47.6564 50.728 47.4485 50.728 47.4485C50.728 47.4485 50.9438 47.4485 51.0222 47.4485H52.3521C52.4384 47.4485 52.6463 47.4485 52.6463 47.4485C52.6463 47.4485 52.6463 47.6564 52.6463 47.7427V48.1664C53.07 47.6093 53.6781 47.3308 54.4705 47.3308C55.2394 47.3308 55.8396 47.5701 56.2712 48.0487C56.7027 48.5273 56.9381 49.2021 56.9773 50.073C56.9852 50.175 56.9891 50.3201 56.9891 50.5084C56.9891 50.6967 56.9852 50.8419 56.9773 50.9439C56.9459 51.7912 56.7105 52.4621 56.2712 52.9564C55.8318 53.4428 55.2316 53.686 54.4705 53.686C53.7016 53.686 53.1289 53.4232 52.7523 52.8975V55.5102C52.7523 55.5965 52.7523 55.8044 52.7523 55.8044C52.7523 55.8044 52.5443 55.8044 52.458 55.8044H51.0222ZM53.835 52.109C54.2038 52.109 54.4666 51.9991 54.6235 51.7795C54.7883 51.5598 54.8824 51.2577 54.906 50.8733C54.9217 50.7163 54.9295 50.5947 54.9295 50.5084C54.9295 50.4221 54.9217 50.3005 54.906 50.1436C54.8824 49.7591 54.7883 49.4571 54.6235 49.2374C54.4666 49.0177 54.2038 48.9078 53.835 48.9078C53.4741 48.9078 53.2073 49.0216 53.0347 49.2491C52.8699 49.4688 52.7758 49.7552 52.7523 50.1083L52.7405 50.5437L52.7523 50.9909C52.768 51.3126 52.866 51.5794 53.0465 51.7912C53.2269 52.0031 53.4898 52.109 53.835 52.109Z" fill="url(#paint6_linear_113_2225)"/>
<path d="M61.4008 53.686C60.4279 53.686 59.6786 53.4546 59.1529 52.9917C58.6272 52.5287 58.3409 51.8775 58.2938 51.038C58.2859 50.936 58.282 50.7595 58.282 50.5084C58.282 50.2573 58.2859 50.0808 58.2938 49.9788C58.3409 49.1471 58.6351 48.4998 59.1764 48.0369C59.7178 47.5662 60.4593 47.3308 61.4008 47.3308C62.3501 47.3308 63.0955 47.5662 63.6369 48.0369C64.1783 48.4998 64.4725 49.1471 64.5195 49.9788C64.5274 50.0808 64.5313 50.2573 64.5313 50.5084C64.5313 50.7595 64.5274 50.936 64.5195 51.038C64.4725 51.8775 64.1861 52.5287 63.6604 52.9917C63.1347 53.4546 62.3815 53.686 61.4008 53.686ZM61.4008 52.2502C61.746 52.2502 62.001 52.1482 62.1658 51.9442C62.3305 51.7324 62.4247 51.4107 62.4482 50.9792C62.4561 50.9007 62.46 50.7438 62.46 50.5084C62.46 50.273 62.4561 50.1161 62.4482 50.0377C62.4247 49.614 62.3266 49.2962 62.154 49.0844C61.9892 48.8725 61.7382 48.7666 61.4008 48.7666C60.7496 48.7666 60.4043 49.1903 60.3651 50.0377L60.3533 50.5084L60.3651 50.9792C60.3808 51.4107 60.471 51.7324 60.6358 51.9442C60.8084 52.1482 61.0634 52.2502 61.4008 52.2502Z" fill="black"/>
<path d="M61.4008 53.686C60.4279 53.686 59.6786 53.4546 59.1529 52.9917C58.6272 52.5287 58.3409 51.8775 58.2938 51.038C58.2859 50.936 58.282 50.7595 58.282 50.5084C58.282 50.2573 58.2859 50.0808 58.2938 49.9788C58.3409 49.1471 58.6351 48.4998 59.1764 48.0369C59.7178 47.5662 60.4593 47.3308 61.4008 47.3308C62.3501 47.3308 63.0955 47.5662 63.6369 48.0369C64.1783 48.4998 64.4725 49.1471 64.5195 49.9788C64.5274 50.0808 64.5313 50.2573 64.5313 50.5084C64.5313 50.7595 64.5274 50.936 64.5195 51.038C64.4725 51.8775 64.1861 52.5287 63.6604 52.9917C63.1347 53.4546 62.3815 53.686 61.4008 53.686ZM61.4008 52.2502C61.746 52.2502 62.001 52.1482 62.1658 51.9442C62.3305 51.7324 62.4247 51.4107 62.4482 50.9792C62.4561 50.9007 62.46 50.7438 62.46 50.5084C62.46 50.273 62.4561 50.1161 62.4482 50.0377C62.4247 49.614 62.3266 49.2962 62.154 49.0844C61.9892 48.8725 61.7382 48.7666 61.4008 48.7666C60.7496 48.7666 60.4043 49.1903 60.3651 50.0377L60.3533 50.5084L60.3651 50.9792C60.3808 51.4107 60.471 51.7324 60.6358 51.9442C60.8084 52.1482 61.0634 52.2502 61.4008 52.2502Z" fill="url(#paint7_linear_113_2225)"/>
<path d="M65.8673 53.5683C65.781 53.5683 65.5613 53.5683 65.5613 53.5683C65.5613 53.5683 65.5613 53.3487 65.5613 53.2623V52.2384C65.5613 52.16 65.5613 51.9442 65.5613 51.9442C65.5613 51.9442 65.7574 51.9599 65.8437 51.9442C66.0713 51.9207 66.2439 51.8187 66.3616 51.6382C66.4793 51.4499 66.5616 51.1792 66.6087 50.8262C66.6558 50.4731 66.6793 49.9984 66.6793 49.4021V47.7427C66.6793 47.6564 66.6793 47.4485 66.6793 47.4485C66.6793 47.4485 66.8951 47.4485 66.9735 47.4485H71.587C71.6733 47.4485 71.893 47.4485 71.893 47.4485C71.893 47.4485 71.893 47.6564 71.893 47.7427V53.2741C71.893 53.3604 71.893 53.5683 71.893 53.5683C71.893 53.5683 71.6733 53.5683 71.587 53.5683H70.1982C70.1198 53.5683 69.904 53.5683 69.904 53.5683C69.904 53.5683 69.904 53.3526 69.904 53.2741V48.9902H68.5624V49.614C68.5624 50.6418 68.4839 51.4382 68.327 52.0031C68.1701 52.5601 67.8994 52.9603 67.5149 53.2035C67.1383 53.4467 66.5891 53.5683 65.8673 53.5683Z" fill="black"/>
<path d="M65.8673 53.5683C65.781 53.5683 65.5613 53.5683 65.5613 53.5683C65.5613 53.5683 65.5613 53.3487 65.5613 53.2623V52.2384C65.5613 52.16 65.5613 51.9442 65.5613 51.9442C65.5613 51.9442 65.7574 51.9599 65.8437 51.9442C66.0713 51.9207 66.2439 51.8187 66.3616 51.6382C66.4793 51.4499 66.5616 51.1792 66.6087 50.8262C66.6558 50.4731 66.6793 49.9984 66.6793 49.4021V47.7427C66.6793 47.6564 66.6793 47.4485 66.6793 47.4485C66.6793 47.4485 66.8951 47.4485 66.9735 47.4485H71.587C71.6733 47.4485 71.893 47.4485 71.893 47.4485C71.893 47.4485 71.893 47.6564 71.893 47.7427V53.2741C71.893 53.3604 71.893 53.5683 71.893 53.5683C71.893 53.5683 71.6733 53.5683 71.587 53.5683H70.1982C70.1198 53.5683 69.904 53.5683 69.904 53.5683C69.904 53.5683 69.904 53.3526 69.904 53.2741V48.9902H68.5624V49.614C68.5624 50.6418 68.4839 51.4382 68.327 52.0031C68.1701 52.5601 67.8994 52.9603 67.5149 53.2035C67.1383 53.4467 66.5891 53.5683 65.8673 53.5683Z" fill="url(#paint8_linear_113_2225)"/>
<path d="M79.6134 47.4485C79.6919 47.4485 79.8959 47.4485 79.8959 47.4485C79.8959 47.4485 79.8959 47.6525 79.8959 47.7309V53.2741C79.8959 53.3526 79.8959 53.5683 79.8959 53.5683C79.8959 53.5683 79.6879 53.5683 79.6016 53.5683H78.2129C78.1344 53.5683 77.9187 53.5683 77.9187 53.5683C77.9187 53.5683 77.9187 53.3526 77.9187 53.2741V49.9788L75.5296 53.38C75.4433 53.5056 75.3334 53.5683 75.2 53.5683H73.9525C73.8741 53.5683 73.6701 53.5683 73.6701 53.5683C73.6701 53.5683 73.6701 53.3643 73.6701 53.2859V47.7427C73.6701 47.6564 73.6701 47.4485 73.6701 47.4485C73.6701 47.4485 73.878 47.4485 73.9643 47.4485H75.353C75.4393 47.4485 75.6473 47.4485 75.6473 47.4485C75.6473 47.4485 75.6473 47.6564 75.6473 47.7427V51.0262L78.0246 47.6368C78.1109 47.5113 78.2207 47.4485 78.3541 47.4485H79.6134Z" fill="black"/>
<path d="M79.6134 47.4485C79.6919 47.4485 79.8959 47.4485 79.8959 47.4485C79.8959 47.4485 79.8959 47.6525 79.8959 47.7309V53.2741C79.8959 53.3526 79.8959 53.5683 79.8959 53.5683C79.8959 53.5683 79.6879 53.5683 79.6016 53.5683H78.2129C78.1344 53.5683 77.9187 53.5683 77.9187 53.5683C77.9187 53.5683 77.9187 53.3526 77.9187 53.2741V49.9788L75.5296 53.38C75.4433 53.5056 75.3334 53.5683 75.2 53.5683H73.9525C73.8741 53.5683 73.6701 53.5683 73.6701 53.5683C73.6701 53.5683 73.6701 53.3643 73.6701 53.2859V47.7427C73.6701 47.6564 73.6701 47.4485 73.6701 47.4485C73.6701 47.4485 73.878 47.4485 73.9643 47.4485H75.353C75.4393 47.4485 75.6473 47.4485 75.6473 47.4485C75.6473 47.4485 75.6473 47.6564 75.6473 47.7427V51.0262L78.0246 47.6368C78.1109 47.5113 78.2207 47.4485 78.3541 47.4485H79.6134Z" fill="url(#paint9_linear_113_2225)"/>
<path d="M81.8224 53.5683C81.7361 53.5683 81.5282 53.5683 81.5282 53.5683C81.5282 53.5683 81.5282 53.3604 81.5282 53.2741V47.7427C81.5282 47.6564 81.5282 47.4485 81.5282 47.4485C81.5282 47.4485 81.7361 47.4485 81.8224 47.4485H83.2111C83.2974 47.4485 83.5053 47.4485 83.5053 47.4485C83.5053 47.4485 83.5053 47.6564 83.5053 47.7427V49.6964H85.6237V47.7427C85.6237 47.6564 85.6237 47.4485 85.6237 47.4485C85.6237 47.4485 85.8317 47.4485 85.918 47.4485H87.3067C87.393 47.4485 87.6009 47.4485 87.6009 47.4485C87.6009 47.4485 87.6009 47.6564 87.6009 47.7427V53.2741C87.6009 53.3526 87.6009 53.5683 87.6009 53.5683C87.6009 53.5683 87.393 53.5683 87.3067 53.5683H85.918C85.8317 53.5683 85.6237 53.5683 85.6237 53.5683C85.6237 53.5683 85.6237 53.3604 85.6237 53.2741V51.2381H83.5053V53.2741C83.5053 53.3526 83.5053 53.5683 83.5053 53.5683C83.5053 53.5683 83.2974 53.5683 83.2111 53.5683H81.8224Z" fill="black"/>
<path d="M81.8224 53.5683C81.7361 53.5683 81.5282 53.5683 81.5282 53.5683C81.5282 53.5683 81.5282 53.3604 81.5282 53.2741V47.7427C81.5282 47.6564 81.5282 47.4485 81.5282 47.4485C81.5282 47.4485 81.7361 47.4485 81.8224 47.4485H83.2111C83.2974 47.4485 83.5053 47.4485 83.5053 47.4485C83.5053 47.4485 83.5053 47.6564 83.5053 47.7427V49.6964H85.6237V47.7427C85.6237 47.6564 85.6237 47.4485 85.6237 47.4485C85.6237 47.4485 85.8317 47.4485 85.918 47.4485H87.3067C87.393 47.4485 87.6009 47.4485 87.6009 47.4485C87.6009 47.4485 87.6009 47.6564 87.6009 47.7427V53.2741C87.6009 53.3526 87.6009 53.5683 87.6009 53.5683C87.6009 53.5683 87.393 53.5683 87.3067 53.5683H85.918C85.8317 53.5683 85.6237 53.5683 85.6237 53.5683C85.6237 53.5683 85.6237 53.3604 85.6237 53.2741V51.2381H83.5053V53.2741C83.5053 53.3526 83.5053 53.5683 83.5053 53.5683C83.5053 53.5683 83.2974 53.5683 83.2111 53.5683H81.8224Z" fill="url(#paint10_linear_113_2225)"/>
<path d="M91.2222 53.686C90.8063 53.686 90.4258 53.6076 90.0806 53.4506C89.7432 53.2859 89.4764 53.0662 89.2803 52.7916C89.092 52.5091 88.9978 52.1992 88.9978 51.8618C88.9978 51.3205 89.2175 50.885 89.6569 50.5555C90.1041 50.226 90.7161 49.9984 91.4929 49.8729L92.964 49.6493V49.4845C92.964 49.1864 92.9012 48.9667 92.7757 48.8255C92.6501 48.6842 92.4383 48.6136 92.1402 48.6136C91.9597 48.6136 91.8106 48.645 91.6929 48.7078C91.5752 48.7705 91.4536 48.8568 91.3281 48.9667C91.2182 49.0608 91.1406 49.1445 91.1406 49.1445C91.1406 49.1445 91.0143 49.2491 90.9515 49.2491H89.6687C89.5902 49.2491 89.4098 49.2491 89.4098 49.2491C89.4098 49.2491 89.4019 49.0608 89.4098 48.9902C89.4176 48.7784 89.5196 48.543 89.7157 48.2841C89.9197 48.0252 90.2257 47.8016 90.6337 47.6133C91.0496 47.4249 91.5595 47.3308 92.1637 47.3308C93.1287 47.3308 93.8427 47.5466 94.3056 47.9781C94.7685 48.4018 95 48.9745 95 49.6964V53.2741C95 53.3526 95 53.5683 95 53.5683C95 53.5683 94.7921 53.5683 94.7058 53.5683H93.3406C93.2621 53.5683 93.0464 53.5683 93.0464 53.5683C93.0464 53.5683 93.0464 53.3526 93.0464 53.2741V52.8622C92.8737 53.1054 92.6305 53.3055 92.3167 53.4624C92.0107 53.6115 91.6459 53.686 91.2222 53.686ZM91.7753 52.3444C92.1362 52.3444 92.4265 52.2267 92.6462 51.9913C92.8737 51.7559 92.9875 51.4107 92.9875 50.9556V50.7909L91.9871 50.9674C91.281 51.0929 90.9279 51.3401 90.9279 51.7088C90.9279 51.905 91.0103 52.0619 91.1751 52.1796C91.3399 52.2894 91.5399 52.3444 91.7753 52.3444Z" fill="black"/>
<path d="M91.2222 53.686C90.8063 53.686 90.4258 53.6076 90.0806 53.4506C89.7432 53.2859 89.4764 53.0662 89.2803 52.7916C89.092 52.5091 88.9978 52.1992 88.9978 51.8618C88.9978 51.3205 89.2175 50.885 89.6569 50.5555C90.1041 50.226 90.7161 49.9984 91.4929 49.8729L92.964 49.6493V49.4845C92.964 49.1864 92.9012 48.9667 92.7757 48.8255C92.6501 48.6842 92.4383 48.6136 92.1402 48.6136C91.9597 48.6136 91.8106 48.645 91.6929 48.7078C91.5752 48.7705 91.4536 48.8568 91.3281 48.9667C91.2182 49.0608 91.1406 49.1445 91.1406 49.1445C91.1406 49.1445 91.0143 49.2491 90.9515 49.2491H89.6687C89.5902 49.2491 89.4098 49.2491 89.4098 49.2491C89.4098 49.2491 89.4019 49.0608 89.4098 48.9902C89.4176 48.7784 89.5196 48.543 89.7157 48.2841C89.9197 48.0252 90.2257 47.8016 90.6337 47.6133C91.0496 47.4249 91.5595 47.3308 92.1637 47.3308C93.1287 47.3308 93.8427 47.5466 94.3056 47.9781C94.7685 48.4018 95 48.9745 95 49.6964V53.2741C95 53.3526 95 53.5683 95 53.5683C95 53.5683 94.7921 53.5683 94.7058 53.5683H93.3406C93.2621 53.5683 93.0464 53.5683 93.0464 53.5683C93.0464 53.5683 93.0464 53.3526 93.0464 53.2741V52.8622C92.8737 53.1054 92.6305 53.3055 92.3167 53.4624C92.0107 53.6115 91.6459 53.686 91.2222 53.686ZM91.7753 52.3444C92.1362 52.3444 92.4265 52.2267 92.6462 51.9913C92.8737 51.7559 92.9875 51.4107 92.9875 50.9556V50.7909L91.9871 50.9674C91.281 51.0929 90.9279 51.3401 90.9279 51.7088C90.9279 51.905 91.0103 52.0619 91.1751 52.1796C91.3399 52.2894 91.5399 52.3444 91.7753 52.3444Z" fill="url(#paint11_linear_113_2225)"/>
<path d="M78.7208 25.3812L81.9746 16.2239H95.0001L87.1144 38.417H85.1717L78.7208 25.3812Z" fill="url(#paint12_linear_113_2225)"/>
<path d="M65.9016 0.195564L78.7284 25.3812L85.1792 38.417H71.587L58.5437 12.8062L52.418 0.195564H65.9016Z" fill="url(#paint13_linear_113_2225)"/>
<path d="M0 38.417L15.7538 0.195564H29.4851L23.409 13.8365L13.2776 38.417H0Z" fill="url(#paint14_linear_113_2225)"/>
<path d="M40.9926 24.2826L52.4183 0.195564L58.544 12.8062L48.716 38.417L40.9926 24.2826Z" fill="url(#paint15_linear_113_2225)"/>
<path d="M29.4855 0.195564L40.9926 24.2826L48.716 38.417H33.5408L23.4094 13.8365L29.4855 0.195564Z" fill="url(#paint16_linear_113_2225)"/>
<defs>
<linearGradient id="paint0_linear_113_2225" x1="95" y1="45.3301" x2="93.9084" y2="61.9661" gradientUnits="userSpaceOnUse">
<stop stop-color="#730000"/>
<stop offset="1" stop-color="#CC0000"/>
</linearGradient>
<linearGradient id="paint1_linear_113_2225" x1="95" y1="45.3301" x2="93.9084" y2="61.9661" gradientUnits="userSpaceOnUse">
<stop stop-color="#730000"/>
<stop offset="1" stop-color="#CC0000"/>
</linearGradient>
<linearGradient id="paint2_linear_113_2225" x1="95" y1="45.3301" x2="93.9084" y2="61.9661" gradientUnits="userSpaceOnUse">
<stop stop-color="#730000"/>
<stop offset="1" stop-color="#CC0000"/>
</linearGradient>
<linearGradient id="paint3_linear_113_2225" x1="95" y1="45.3301" x2="93.9084" y2="61.9661" gradientUnits="userSpaceOnUse">
<stop stop-color="#730000"/>
<stop offset="1" stop-color="#CC0000"/>
</linearGradient>
<linearGradient id="paint4_linear_113_2225" x1="95" y1="45.3301" x2="93.9084" y2="61.9661" gradientUnits="userSpaceOnUse">
<stop stop-color="#730000"/>
<stop offset="1" stop-color="#CC0000"/>
</linearGradient>
<linearGradient id="paint5_linear_113_2225" x1="95" y1="45.3301" x2="93.9084" y2="61.9661" gradientUnits="userSpaceOnUse">
<stop stop-color="#730000"/>
<stop offset="1" stop-color="#CC0000"/>
</linearGradient>
<linearGradient id="paint6_linear_113_2225" x1="95" y1="45.3301" x2="93.9084" y2="61.9661" gradientUnits="userSpaceOnUse">
<stop stop-color="#730000"/>
<stop offset="1" stop-color="#CC0000"/>
</linearGradient>
<linearGradient id="paint7_linear_113_2225" x1="95" y1="45.3301" x2="93.9084" y2="61.9661" gradientUnits="userSpaceOnUse">
<stop stop-color="#730000"/>
<stop offset="1" stop-color="#CC0000"/>
</linearGradient>
<linearGradient id="paint8_linear_113_2225" x1="95" y1="45.3301" x2="93.9084" y2="61.9661" gradientUnits="userSpaceOnUse">
<stop stop-color="#730000"/>
<stop offset="1" stop-color="#CC0000"/>
</linearGradient>
<linearGradient id="paint9_linear_113_2225" x1="95" y1="45.3301" x2="93.9084" y2="61.9661" gradientUnits="userSpaceOnUse">
<stop stop-color="#730000"/>
<stop offset="1" stop-color="#CC0000"/>
</linearGradient>
<linearGradient id="paint10_linear_113_2225" x1="95" y1="45.3301" x2="93.9084" y2="61.9661" gradientUnits="userSpaceOnUse">
<stop stop-color="#730000"/>
<stop offset="1" stop-color="#CC0000"/>
</linearGradient>
<linearGradient id="paint11_linear_113_2225" x1="95" y1="45.3301" x2="93.9084" y2="61.9661" gradientUnits="userSpaceOnUse">
<stop stop-color="#730000"/>
<stop offset="1" stop-color="#CC0000"/>
</linearGradient>
<linearGradient id="paint12_linear_113_2225" x1="95.0001" y1="16.2239" x2="77.6801" y2="37.5726" gradientUnits="userSpaceOnUse">
<stop stop-color="#730000"/>
<stop offset="1" stop-color="#CC0000"/>
</linearGradient>
<linearGradient id="paint13_linear_113_2225" x1="85.1792" y1="0.195564" x2="56.618" y2="41.3331" gradientUnits="userSpaceOnUse">
<stop stop-color="#730000"/>
<stop offset="1" stop-color="#CC0000"/>
</linearGradient>
<linearGradient id="paint14_linear_113_2225" x1="29.4851" y1="0.195564" x2="1.48366e-06" y2="38.417" gradientUnits="userSpaceOnUse">
<stop stop-color="#730000"/>
<stop offset="1" stop-color="#CC0000"/>
</linearGradient>
<linearGradient id="paint15_linear_113_2225" x1="58.544" y1="0.195564" x2="29.0569" y2="22.9491" gradientUnits="userSpaceOnUse">
<stop stop-color="#730000"/>
<stop offset="1" stop-color="#CC0000"/>
</linearGradient>
<linearGradient id="paint16_linear_113_2225" x1="48.716" y1="0.195564" x2="18.4052" y2="33.9192" gradientUnits="userSpaceOnUse">
<stop stop-color="#730000"/>
<stop offset="1" stop-color="#CC0000"/>
</linearGradient>
</defs>
</svg>
