<svg width="24" height="24" viewBox="0 0 24 24" fill="none" xmlns="http://www.w3.org/2000/svg">
<g clip-path="url(#clip0_9_168)">
<path d="M12 24C18.6274 24 24 18.6274 24 12C24 5.37258 18.6274 0 12 0C5.37258 0 0 5.37258 0 12C0 18.6274 5.37258 24 12 24Z" fill="#CC0000"/>
<path fill-rule="evenodd" clip-rule="evenodd" d="M14.286 9.6C14.286 10.9255 13.2627 12 12.0003 12C10.738 12 9.71461 10.9255 9.71461 9.6C9.71461 8.27452 10.738 7.2 12.0003 7.2C13.2627 7.2 14.286 8.27452 14.286 9.6ZM12.7622 9.6C12.7622 10.0418 12.4211 10.4 12.0003 10.4C11.5795 10.4 11.2384 10.0418 11.2384 9.6C11.2384 9.15817 11.5795 8.8 12.0003 8.8C12.4211 8.8 12.7622 9.15817 12.7622 9.6Z" fill="white"/>
<path fill-rule="evenodd" clip-rule="evenodd" d="M17.3337 9.6C17.3337 12.5049 14.5208 16.6756 12.9807 18.7415C12.4001 19.5203 12.1705 20 12.0002 20C11.8299 20 11.6006 19.5203 11.02 18.7415C9.47983 16.6756 6.66699 12.5049 6.66699 9.6C6.66699 6.50721 9.05481 4 12.0003 4C14.9458 4 17.3337 6.50721 17.3337 9.6ZM15.8099 9.6C15.8099 10.267 15.5765 11.1731 15.1116 12.254C14.6579 13.3086 14.0394 14.404 13.3991 15.4125C12.9104 16.1822 12.4199 16.8843 12.0003 17.4579C11.5807 16.8843 11.0903 16.1822 10.6015 15.4125C9.96121 14.404 9.3427 13.3086 8.88908 12.254C8.42419 11.1731 8.1908 10.267 8.1908 9.6C8.1908 7.39086 9.89638 5.6 12.0003 5.6C14.1043 5.6 15.8099 7.39086 15.8099 9.6Z" fill="white"/>
</g>
<defs>
<clipPath id="clip0_9_168">
<rect width="24" height="24" fill="white"/>
</clipPath>
</defs>
</svg>
