<svg width="10" height="12" viewBox="0 0 10 12" fill="none" xmlns="http://www.w3.org/2000/svg">
<path fill-rule="evenodd" clip-rule="evenodd" d="M6.03039 8.12957C5.42577 8.52284 4.71196 8.75 3.94737 8.75C1.7673 8.75 0 6.90317 0 4.625C0 2.34683 1.7673 0.5 3.94737 0.5C6.12744 0.5 7.89474 2.34683 7.89474 4.625C7.89474 5.70614 7.49673 6.69013 6.84547 7.4257L9.84585 10.5611C10.0514 10.7759 10.0514 11.1241 9.84585 11.3389C9.64031 11.5537 9.30706 11.5537 9.10152 11.3389L6.03039 8.12957ZM6.84211 4.625C6.84211 6.29566 5.54609 7.65 3.94737 7.65C2.34865 7.65 1.05263 6.29566 1.05263 4.625C1.05263 2.95434 2.34865 1.6 3.94737 1.6C5.54609 1.6 6.84211 2.95434 6.84211 4.625Z" fill="#A4A4A4"/>
</svg>
