<svg width="12" height="12" viewBox="0 0 12 12" fill="none" xmlns="http://www.w3.org/2000/svg">
<path d="M6.6 3C6.6 2.66863 6.33137 2.4 6 2.4C5.66863 2.4 5.4 2.66863 5.4 3V6C5.4 6.33137 5.66863 6.6 6 6.6H8.4C8.73137 6.6 9 6.33137 9 6C9 5.66863 8.73137 5.4 8.4 5.4H6.6V3Z" fill="#CC0000"/>
<path fill-rule="evenodd" clip-rule="evenodd" d="M12 6C12 9.31371 9.31371 12 6 12C2.68629 12 0 9.31371 0 6C0 2.68629 2.68629 0 6 0C9.31371 0 12 2.68629 12 6ZM10.8 6C10.8 8.65097 8.65097 10.8 6 10.8C3.34903 10.8 1.2 8.65097 1.2 6C1.2 3.34903 3.34903 1.2 6 1.2C8.65097 1.2 10.8 3.34903 10.8 6Z" fill="#CC0000"/>
</svg>
